<svg width="32" height="32" viewBox="0 0 32 32" fill="none" xmlns="http://www.w3.org/2000/svg">
<path fill-rule="evenodd" clip-rule="evenodd" d="M16 26C24.836 26 32 16 32 16C32 16 24.836 6 16 6C7.164 6 0 16 0 16C0 16 7.164 26 16 26ZM16 22C17.5913 22 19.1174 21.3679 20.2426 20.2426C21.3679 19.1174 22 17.5913 22 16C22 14.4087 21.3679 12.8826 20.2426 11.7574C19.1174 10.6321 17.5913 10 16 10C14.4087 10 12.8826 10.6321 11.7574 11.7574C10.6321 12.8826 10 14.4087 10 16C10 17.5913 10.6321 19.1174 11.7574 20.2426C12.8826 21.3679 14.4087 22 16 22ZM16 19C16.7956 19 17.5587 18.6839 18.1213 18.1213C18.6839 17.5587 19 16.7956 19 16C19 15.2044 18.6839 14.4413 18.1213 13.8787C17.5587 13.3161 16.7956 13 16 13C15.2044 13 14.4413 13.3161 13.8787 13.8787C13.3161 14.4413 13 15.2044 13 16C13 16.7956 13.3161 17.5587 13.8787 18.1213C14.4413 18.6839 15.2044 19 16 19Z" fill="black"/>
<line x1="6.76604" y1="3.35721" x2="26.0497" y2="26.3385" stroke="black" stroke-width="2"/>
</svg>
