<svg width="32" height="32" viewBox="0 0 32 32" fill="none" xmlns="http://www.w3.org/2000/svg">
<path fill-rule="evenodd" clip-rule="evenodd" d="M16 26.156C24.836 26.156 32 16.156 32 16.156C32 16.156 24.836 6.15601 16 6.15601C7.164 6.15601 0 16.156 0 16.156C0 16.156 7.164 26.156 16 26.156ZM16 22.156C17.5913 22.156 19.1174 21.5239 20.2426 20.3986C21.3679 19.2734 22 17.7473 22 16.156C22 14.5647 21.3679 13.0386 20.2426 11.9134C19.1174 10.7881 17.5913 10.156 16 10.156C14.4087 10.156 12.8826 10.7881 11.7574 11.9134C10.6321 13.0386 10 14.5647 10 16.156C10 17.7473 10.6321 19.2734 11.7574 20.3986C12.8826 21.5239 14.4087 22.156 16 22.156ZM16 19.156C16.7956 19.156 17.5587 18.8399 18.1213 18.2773C18.6839 17.7147 19 16.9517 19 16.156C19 15.3604 18.6839 14.5973 18.1213 14.0347C17.5587 13.4721 16.7956 13.156 16 13.156C15.2044 13.156 14.4413 13.4721 13.8787 14.0347C13.3161 14.5973 13 15.3604 13 16.156C13 16.9517 13.3161 17.7147 13.8787 18.2773C14.4413 18.8399 15.2044 19.156 16 19.156Z" fill="black"/>
</svg>
