<svg width="32" height="21" viewBox="0 0 32 21" fill="none" xmlns="http://www.w3.org/2000/svg">
<path fill-rule="evenodd" clip-rule="evenodd" d="M16 20.156C24.836 20.156 32 10.156 32 10.156C32 10.156 24.836 0.156006 16 0.156006C7.164 0.156006 0 10.156 0 10.156C0 10.156 7.164 20.156 16 20.156ZM16 16.156C17.5913 16.156 19.1174 15.5239 20.2426 14.3986C21.3679 13.2734 22 11.7473 22 10.156C22 8.56471 21.3679 7.03858 20.2426 5.91337C19.1174 4.78815 17.5913 4.15601 16 4.15601C14.4087 4.15601 12.8826 4.78815 11.7574 5.91337C10.6321 7.03858 10 8.56471 10 10.156C10 11.7473 10.6321 13.2734 11.7574 14.3986C12.8826 15.5239 14.4087 16.156 16 16.156ZM16 13.156C16.7956 13.156 17.5587 12.8399 18.1213 12.2773C18.6839 11.7147 19 10.9517 19 10.156C19 9.36036 18.6839 8.59729 18.1213 8.03469C17.5587 7.47208 16.7956 7.15601 16 7.15601C15.2044 7.15601 14.4413 7.47208 13.8787 8.03469C13.3161 8.59729 13 9.36036 13 10.156C13 10.9517 13.3161 11.7147 13.8787 12.2773C14.4413 12.8399 15.2044 13.156 16 13.156Z" fill="white"/>
</svg>
