<?xml version="1.0" encoding="utf-8"?>
<!DOCTYPE svg PUBLIC "-//W3C//DTD SVG 20010904//EN" "http://www.w3.org/TR/2001/REC-SVG-20010904/DTD/svg10.dtd">
<svg version="1.0" xmlns="http://www.w3.org/2000/svg" width="502pt" height="452pt" viewBox="0 0 502 452" style="" preserveAspectRatio="xMidYMid meet">
<g fill="#123CA9FF" stroke="#123CA9FF">
<path d="M 147.258 47.267 C 130.944 57.195 121.447 64.622 107.960 78.000 C 79.374 106.356 61.345 138.950 52.648 178.000 C 49.014 194.315 47.843 205.247 47.825 223.000 C 47.770 278.607 69.680 330.351 109.697 369.123 C 169.133 426.707 258.004 442.257 334.243 408.413 C 341.794 405.061 342.905 404.257 342.390 402.516 C 342.063 401.407 338.745 394.650 335.018 387.500 C 331.291 380.350 322.929 363.954 316.435 351.064 C 309.941 338.174 303.924 326.919 303.064 326.052 C 302.204 325.185 300.375 322.242 299.000 319.513 C 297.625 316.784 295.933 313.941 295.241 313.195 C 294.548 312.449 294.237 311.425 294.550 310.919 C 294.862 310.414 294.754 309.996 294.309 309.992 C 293.864 309.988 293.024 308.975 292.442 307.742 C 291.309 305.341 284.713 292.997 275.481 276.000 C 272.344 270.225 269.752 264.938 269.722 264.250 C 269.692 263.563 269.371 263.000 269.011 263.000 C 268.650 263.000 267.324 260.936 266.064 258.413 C 264.106 254.492 263.463 253.935 261.636 254.575 C 257.061 256.178 243.284 256.176 238.557 254.571 C 236.012 253.707 233.730 253.000 233.486 253.000 C 232.832 253.000 235.319 258.399 236.296 259.100 C 236.756 259.430 237.233 260.330 237.355 261.100 C 237.553 262.345 240.816 268.437 244.648 274.715 C 246.798 278.238 246.280 279.001 241.750 278.985 C 236.458 278.966 236.020 278.643 232.976 272.526 C 231.614 269.790 229.933 266.941 229.241 266.195 C 228.548 265.449 228.237 264.425 228.550 263.919 C 228.862 263.414 228.694 263.000 228.176 263.000 C 227.657 263.000 226.974 262.213 226.657 261.250 C 226.340 260.288 223.354 254.550 220.022 248.500 C 216.690 242.450 212.959 235.475 211.732 233.000 C 210.504 230.525 209.233 228.275 208.907 228.000 C 208.581 227.725 207.182 225.250 205.800 222.500 C 201.824 214.595 194.589 201.074 190.630 194.154 C 188.634 190.664 187.000 187.385 187.000 186.869 C 187.000 186.352 186.253 184.790 185.340 183.397 C 183.257 180.218 181.215 180.632 172.314 186.040 C 168.729 188.218 165.461 190.000 165.053 190.000 C 164.644 190.000 163.528 190.864 162.573 191.920 C 160.908 193.760 161.044 194.227 165.861 203.170 C 168.625 208.301 172.942 216.505 175.455 221.400 C 177.967 226.295 180.863 231.695 181.890 233.400 C 182.917 235.105 185.771 240.325 188.231 245.000 C 190.692 249.675 194.571 256.952 196.852 261.171 C 199.134 265.390 201.000 269.103 201.000 269.421 C 201.000 270.525 199.027 269.987 193.519 267.379 C 189.004 265.241 187.552 263.905 185.641 260.129 C 184.353 257.583 181.493 252.125 179.287 248.000 C 177.080 243.875 173.010 236.225 170.243 231.000 C 167.476 225.775 163.549 218.575 161.517 215.000 C 159.485 211.425 157.235 207.150 156.518 205.500 C 155.800 203.850 154.541 201.620 153.720 200.544 C 152.269 198.645 152.058 198.715 146.363 202.968 C 143.138 205.377 139.537 208.284 138.359 209.428 L 136.219 211.509 139.556 218.254 C 141.392 221.964 142.580 225.007 142.197 225.015 C 141.814 225.024 141.959 225.361 142.520 225.765 C 143.558 226.512 146.332 232.179 146.007 232.888 C 145.909 233.102 146.205 233.552 146.665 233.888 C 148.177 234.996 150.961 240.706 150.307 241.360 C 149.955 241.712 150.192 242.000 150.833 242.000 C 151.475 242.000 152.000 242.675 152.000 243.500 C 152.000 245.574 151.260 245.395 147.637 242.445 C 145.912 241.040 141.125 237.394 137.000 234.344 C 132.875 231.293 126.905 226.126 123.734 222.862 C 117.064 215.996 117.079 215.844 125.079 209.000 C 127.972 206.525 131.056 203.819 131.933 202.986 C 132.810 202.154 135.096 200.367 137.014 199.015 C 138.931 197.663 141.625 195.520 143.000 194.253 C 146.669 190.873 158.157 183.386 158.888 183.899 C 159.102 184.048 159.563 183.707 159.913 183.140 C 161.321 180.862 187.807 167.089 192.000 166.454 C 192.275 166.413 194.242 165.618 196.372 164.689 C 198.502 163.760 201.063 163.000 202.063 163.000 C 203.063 163.000 204.160 162.550 204.500 162.000 C 204.840 161.450 205.905 161.000 206.868 161.000 C 207.830 161.000 209.440 160.399 210.444 159.665 C 212.191 158.387 212.153 158.094 209.556 152.915 C 208.064 149.937 205.984 146.107 204.934 144.403 C 203.885 142.700 203.321 141.013 203.680 140.653 C 204.039 140.294 203.861 140.000 203.283 140.000 C 202.706 140.000 201.961 139.213 201.627 138.250 C 201.294 137.288 198.928 132.675 196.370 128.000 C 187.045 110.960 186.883 110.489 190.000 109.500 C 191.100 109.151 192.000 108.396 192.000 107.824 C 192.000 106.497 158.671 41.019 158.000 41.028 C 157.725 41.032 152.891 43.839 147.258 47.267 "/></g>
<g fill="#89A7FFFF" stroke="#89A7FFFF">
<path d="M 241.000 18.608 C 220.521 20.297 201.602 23.895 186.675 28.941 C 175.192 32.822 159.000 39.986 159.000 41.184 C 159.000 41.716 166.425 56.688 175.500 74.455 C 184.575 92.223 192.000 107.233 192.000 107.812 C 192.000 108.391 191.100 109.151 190.000 109.500 C 188.900 109.849 188.000 110.779 188.000 111.567 C 188.000 112.622 188.528 112.472 190.000 111.000 C 194.005 106.995 194.507 107.534 204.912 127.000 C 207.117 131.125 210.852 138.231 213.211 142.791 C 219.756 155.441 219.882 155.657 221.508 157.007 C 222.702 157.998 224.249 158.025 228.682 157.135 C 238.283 155.207 262.231 155.699 273.591 158.058 C 284.538 160.331 299.969 164.810 301.450 166.144 C 301.972 166.615 302.984 167.000 303.697 167.000 C 304.411 167.000 307.852 168.350 311.344 170.000 C 314.836 171.650 318.180 173.000 318.775 173.000 C 319.370 173.000 320.477 173.563 321.235 174.250 C 321.993 174.938 325.062 176.781 328.056 178.348 C 334.644 181.794 354.632 195.102 358.805 198.821 C 360.458 200.294 363.384 202.752 365.307 204.282 C 367.229 205.812 371.141 209.203 373.999 211.817 L 379.197 216.571 371.848 223.435 C 365.292 229.560 342.941 247.000 341.648 247.000 C 341.370 247.000 338.431 248.800 335.119 251.000 C 331.807 253.200 328.913 255.000 328.687 255.000 C 328.462 255.000 325.068 256.764 321.145 258.920 C 317.222 261.076 312.323 263.392 310.257 264.065 C 308.190 264.739 306.275 265.562 306.000 265.895 C 305.725 266.228 300.878 268.020 295.230 269.878 C 289.581 271.736 284.751 273.594 284.495 274.007 C 284.240 274.421 285.799 278.076 287.960 282.129 C 290.122 286.183 292.607 291.059 293.484 292.965 C 294.360 294.871 295.398 296.671 295.789 296.965 C 296.747 297.686 309.238 322.110 308.825 322.456 C 306.577 324.344 303.718 325.011 302.436 323.947 C 301.580 323.236 301.000 323.165 301.000 323.771 C 301.000 324.329 301.597 325.015 302.326 325.295 C 303.055 325.575 308.968 336.310 315.464 349.152 C 333.953 385.697 343.209 403.478 343.887 403.752 C 344.844 404.138 360.929 394.271 371.195 387.000 C 382.251 379.170 399.737 362.630 408.651 351.571 C 441.502 310.813 458.210 258.228 454.191 208.240 C 449.686 152.200 425.655 103.822 384.802 68.550 C 354.343 42.251 318.512 25.863 279.884 20.564 C 268.710 19.031 248.309 18.005 241.000 18.608 "/></g>
<g fill="#000000FF" stroke="#000000FF">
<path d="M 190.750 110.080 C 188.383 111.459 188.467 111.870 192.607 119.154 C 194.591 122.644 198.122 129.100 200.455 133.500 C 202.788 137.900 206.790 145.401 209.348 150.170 C 211.907 154.938 214.000 159.061 214.000 159.331 C 214.000 159.601 210.173 161.015 205.495 162.473 C 200.818 163.931 195.755 165.768 194.245 166.556 C 192.735 167.343 191.134 167.990 190.686 167.994 C 190.238 167.997 187.412 169.125 184.406 170.500 C 181.400 171.875 178.652 173.000 178.299 173.000 C 177.946 173.000 176.947 173.619 176.079 174.375 C 175.210 175.131 171.577 177.268 168.005 179.125 C 164.433 180.981 161.058 182.843 160.505 183.262 C 159.952 183.682 156.888 185.757 153.695 187.874 C 145.611 193.235 133.785 202.657 125.500 210.338 L 118.500 216.828 121.500 220.028 C 125.290 224.071 148.261 242.081 149.202 241.748 C 149.588 241.612 146.776 235.280 142.952 227.677 C 135.782 213.422 134.707 209.414 137.750 208.292 C 138.713 207.936 139.748 207.282 140.050 206.837 C 141.178 205.180 151.409 198.000 152.643 198.000 C 153.348 198.000 155.544 201.263 157.522 205.250 C 159.501 209.238 162.352 214.525 163.858 217.000 C 165.363 219.475 167.224 223.075 167.991 225.000 C 168.759 226.925 169.693 228.725 170.068 229.000 C 170.675 229.445 174.748 236.951 185.850 258.081 C 188.629 263.369 190.065 264.989 193.161 266.331 C 197.111 268.042 199.000 268.409 199.000 267.465 C 199.000 267.171 196.975 263.362 194.500 259.000 C 192.025 254.638 190.000 250.805 190.000 250.482 C 190.000 250.158 187.568 245.682 184.597 240.535 C 181.625 235.388 178.609 229.562 177.896 227.588 C 177.182 225.615 176.287 224.000 175.908 224.000 C 175.528 224.000 174.477 222.313 173.573 220.250 C 172.668 218.188 169.696 212.450 166.967 207.500 C 159.024 193.090 158.899 192.650 162.250 190.885 C 163.488 190.234 164.725 189.391 165.000 189.013 C 165.471 188.364 182.735 179.000 183.460 179.000 C 183.646 179.000 184.679 180.688 185.755 182.750 C 186.831 184.813 190.767 192.125 194.501 199.000 C 198.236 205.875 203.445 215.550 206.077 220.500 C 208.710 225.450 211.997 231.525 213.383 234.000 C 214.769 236.475 216.815 240.300 217.932 242.500 C 219.048 244.700 222.891 251.900 226.473 258.500 C 230.055 265.100 233.542 271.625 234.222 273.000 C 234.903 274.375 235.918 275.831 236.480 276.235 C 237.559 277.012 244.000 277.301 244.000 276.573 C 244.000 276.108 239.227 266.966 234.113 257.634 C 232.345 254.408 231.133 251.534 231.419 251.248 C 231.705 250.962 234.174 251.689 236.905 252.864 C 242.522 255.280 254.405 255.800 259.937 253.872 C 264.563 252.259 264.445 252.100 277.539 277.500 C 279.524 281.350 282.378 286.750 283.881 289.500 C 287.233 295.633 295.272 310.574 299.214 318.000 C 300.820 321.025 302.506 323.879 302.960 324.343 C 303.618 325.014 307.120 323.888 308.825 322.456 C 309.238 322.110 296.747 297.686 295.789 296.965 C 295.398 296.671 294.360 294.871 293.484 292.965 C 292.607 291.059 290.122 286.183 287.960 282.129 C 285.799 278.076 284.240 274.421 284.495 274.007 C 284.751 273.594 289.581 271.736 295.230 269.878 C 300.878 268.020 305.725 266.228 306.000 265.895 C 306.275 265.562 308.190 264.739 310.257 264.065 C 312.323 263.392 317.222 261.076 321.145 258.920 C 325.068 256.764 328.462 255.000 328.687 255.000 C 328.913 255.000 331.807 253.200 335.119 251.000 C 338.431 248.800 341.370 247.000 341.648 247.000 C 342.941 247.000 365.292 229.560 371.848 223.435 L 379.197 216.571 373.999 211.817 C 371.141 209.203 367.229 205.812 365.307 204.282 C 363.384 202.752 360.458 200.294 358.805 198.821 C 354.632 195.102 334.644 181.794 328.056 178.348 C 325.062 176.781 321.993 174.938 321.235 174.250 C 320.477 173.563 319.370 173.000 318.775 173.000 C 318.180 173.000 314.836 171.650 311.344 170.000 C 307.852 168.350 304.411 167.000 303.697 167.000 C 302.984 167.000 301.973 166.615 301.450 166.144 C 299.969 164.810 284.538 160.331 273.591 158.058 C 262.231 155.699 238.283 155.207 228.682 157.135 C 224.249 158.025 222.702 157.998 221.508 157.007 C 219.882 155.657 219.756 155.441 213.211 142.791 C 200.097 117.443 195.224 108.994 193.741 109.030 C 193.059 109.047 191.713 109.519 190.750 110.080 M 297.859 172.022 C 300.257 173.110 302.641 174.000 303.158 174.000 C 306.068 174.000 342.770 194.249 345.500 197.360 C 346.050 197.987 348.750 200.063 351.500 201.974 C 356.262 205.283 359.968 208.344 366.155 214.078 L 368.937 216.656 365.218 220.169 C 359.603 225.475 342.336 238.694 337.500 241.389 C 335.850 242.308 333.150 243.930 331.500 244.991 C 329.850 246.053 325.350 248.556 321.500 250.553 C 317.650 252.551 314.050 254.522 313.500 254.934 C 311.172 256.678 294.029 263.000 291.627 263.000 C 290.097 263.000 290.582 262.043 294.113 258.095 C 300.318 251.158 300.471 250.942 303.835 244.397 C 308.928 234.486 310.481 227.723 310.358 216.000 C 310.238 204.568 308.537 197.769 303.346 187.968 C 300.290 182.197 299.510 181.152 293.750 175.098 C 291.688 172.930 290.000 170.897 290.000 170.578 C 290.000 169.426 293.593 170.086 297.859 172.022 M 262.184 164.114 C 263.111 164.601 264.612 165.000 265.520 165.000 C 268.807 165.000 280.317 171.595 285.990 176.729 C 293.020 183.091 297.927 190.317 301.114 199.000 C 303.143 204.527 303.500 207.326 303.500 217.700 C 303.500 226.127 303.113 230.287 302.250 231.150 C 301.563 231.838 301.000 233.147 301.000 234.059 C 301.000 235.690 295.975 245.783 293.674 248.773 C 290.685 252.657 281.661 260.973 279.790 261.567 C 277.555 262.276 277.470 262.182 272.864 253.894 L 270.229 249.151 274.159 245.992 C 287.536 235.243 291.559 213.459 282.948 198.409 C 273.674 182.199 258.163 176.255 236.395 180.569 C 233.538 181.135 233.155 180.879 231.586 177.342 C 230.649 175.229 229.188 172.218 228.339 170.652 C 226.489 167.236 227.119 166.468 233.000 164.964 C 244.176 162.106 257.621 161.715 262.184 164.114 M 219.028 168.842 C 221.090 171.422 227.000 182.629 227.000 183.960 C 227.000 184.566 225.426 186.443 223.502 188.132 C 218.472 192.549 214.215 199.291 212.713 205.220 C 211.996 208.049 210.877 210.541 210.225 210.758 C 209.574 210.975 208.244 209.431 207.270 207.327 C 206.297 205.222 205.216 203.275 204.868 203.000 C 204.520 202.725 203.395 200.806 202.368 198.737 C 201.341 196.667 198.282 190.709 195.572 185.498 C 192.861 180.287 190.836 175.886 191.072 175.719 C 192.594 174.638 205.311 170.032 208.344 169.463 C 210.367 169.084 212.269 168.374 212.570 167.887 C 213.525 166.341 217.499 166.929 219.028 168.842 "/></g>
<g fill="#89A7FFFF" stroke="#89A7FFFF">
<path d="M 290.000 170.578 C 290.000 170.897 291.688 172.930 293.750 175.098 C 299.510 181.152 300.290 182.197 303.346 187.968 C 308.537 197.769 310.238 204.568 310.358 216.000 C 310.481 227.723 308.928 234.486 303.835 244.397 C 300.471 250.942 300.318 251.158 294.113 258.095 C 290.582 262.043 290.097 263.000 291.627 263.000 C 294.029 263.000 311.172 256.678 313.500 254.934 C 314.050 254.522 317.650 252.551 321.500 250.553 C 325.350 248.556 329.850 246.053 331.500 244.991 C 333.150 243.930 335.850 242.308 337.500 241.389 C 342.336 238.694 359.603 225.475 365.218 220.169 L 368.937 216.656 366.155 214.078 C 359.968 208.344 356.262 205.283 351.500 201.974 C 348.750 200.063 346.050 197.987 345.500 197.360 C 342.770 194.249 306.068 174.000 303.158 174.000 C 302.641 174.000 300.257 173.110 297.859 172.022 C 293.593 170.086 290.000 169.426 290.000 170.578 "/></g>
<g fill="#89A7FFFF" stroke="#89A7FFFF">
<path d="M 242.000 163.003 C 234.993 164.265 228.584 166.032 227.648 166.959 C 227.180 167.423 227.491 169.085 228.339 170.652 C 229.188 172.218 230.649 175.229 231.586 177.342 C 233.155 180.879 233.538 181.135 236.395 180.569 C 258.163 176.255 273.674 182.199 282.948 198.409 C 291.559 213.459 287.536 235.243 274.159 245.992 L 270.229 249.151 272.864 253.894 C 277.470 262.182 277.555 262.276 279.790 261.567 C 281.661 260.973 290.685 252.657 293.674 248.773 C 295.975 245.783 301.000 235.690 301.000 234.059 C 301.000 233.147 301.563 231.838 302.250 231.150 C 303.113 230.287 303.500 226.127 303.500 217.700 C 303.500 207.326 303.143 204.527 301.114 199.000 C 297.927 190.317 293.020 183.091 285.990 176.729 C 280.317 171.595 268.807 165.000 265.520 165.000 C 264.612 165.000 263.111 164.601 262.184 164.114 C 259.639 162.776 247.094 162.085 242.000 163.003 "/></g>
<g fill="#123CA9FF" stroke="#123CA9FF">
<path d="M 213.500 168.713 C 209.476 169.680 193.474 175.331 192.616 176.088 C 192.124 176.522 192.838 178.780 194.228 181.184 C 195.600 183.558 199.107 190.000 202.021 195.500 C 208.488 207.705 209.276 209.000 210.241 209.000 C 210.658 209.000 211.000 208.085 211.000 206.967 C 211.000 203.367 216.059 194.644 221.220 189.346 L 226.241 184.193 223.371 178.568 C 217.367 166.804 218.158 167.593 213.500 168.713 "/></g>
<g fill="#89A7FFFF" stroke="#89A7FFFF">
<path d="M 259.000 254.132 C 257.625 254.684 252.450 255.039 247.500 254.920 C 242.401 254.798 239.643 255.020 241.136 255.432 C 244.181 256.273 258.480 255.672 261.636 254.571 C 263.461 253.935 264.107 254.495 266.064 258.413 C 267.324 260.936 268.676 263.000 269.069 263.000 C 269.864 263.000 266.850 256.730 264.962 254.454 C 263.577 252.785 262.496 252.727 259.000 254.132 "/></g>
<g fill="#89A7FFFF" stroke="#89A7FFFF">
<path d="M 240.038 268.600 C 240.582 270.030 241.695 272.155 242.513 273.322 C 244.861 276.674 244.315 277.296 239.500 276.753 C 235.097 276.257 233.440 277.188 236.582 278.393 C 238.923 279.291 246.000 279.129 246.000 278.178 C 246.000 277.156 239.999 266.000 239.450 266.000 C 239.230 266.000 239.494 267.170 240.038 268.600 "/></g>
<g fill="#89A7FFFF" stroke="#89A7FFFF">
<path d="M 137.500 198.751 C 131.739 202.529 118.000 215.158 118.000 216.677 C 118.000 217.137 121.713 214.081 126.250 209.887 C 138.102 198.933 139.827 197.226 137.500 198.751 "/></g>
<g fill="#89A7FFFF" stroke="#89A7FFFF">
<path d="M 190.000 250.335 C 190.000 250.739 192.025 254.638 194.500 259.000 C 196.975 263.362 199.000 267.220 199.000 267.574 C 199.000 267.927 197.763 267.953 196.250 267.631 C 193.661 267.079 193.690 267.142 196.740 268.699 C 198.522 269.609 200.248 270.085 200.576 269.757 C 200.904 269.429 199.059 265.187 196.476 260.330 C 191.933 251.788 190.000 248.804 190.000 250.335 "/></g>
<g fill="#89A7FFFF" stroke="#89A7FFFF">
<path d="M 177.004 243.550 C 177.006 244.073 177.942 246.032 179.084 247.905 C 180.225 249.778 182.744 254.420 184.681 258.221 C 186.618 262.021 188.419 264.914 188.684 264.649 C 188.949 264.385 186.822 259.743 183.959 254.334 C 178.711 244.421 176.997 241.763 177.004 243.550 "/></g>
<g fill="#89A7FFFF" stroke="#89A7FFFF">
<path d="M 222.031 175.364 C 222.014 175.839 222.978 177.967 224.172 180.093 L 226.345 183.958 220.752 189.821 C 217.677 193.045 215.012 196.542 214.830 197.592 C 214.649 198.641 215.684 197.681 217.131 195.458 C 218.579 193.234 221.391 189.986 223.381 188.238 C 225.372 186.491 226.998 184.485 226.995 183.781 C 226.989 182.340 222.080 174.016 222.031 175.364 "/></g>
<g fill="#89A7FFFF" stroke="#89A7FFFF">
<path d="M 125.383 224.811 C 126.366 226.401 142.329 238.802 143.889 239.188 C 144.583 239.360 141.430 236.575 136.884 233.000 C 126.253 224.640 124.511 223.400 125.383 224.811 "/></g>
<g fill="#89A7FFFF" stroke="#89A7FFFF">
<path d="M 212.162 202.543 C 211.523 203.946 211.000 205.973 211.000 207.047 C 211.000 209.745 209.601 209.491 208.001 206.502 C 207.265 205.127 206.481 204.186 206.258 204.409 C 205.438 205.229 209.155 211.115 210.260 210.747 C 211.290 210.403 214.310 200.977 213.614 200.280 C 213.455 200.122 212.802 201.140 212.162 202.543 "/></g>
<g fill="#89A7FFFF" stroke="#89A7FFFF">
<path d="M 145.725 202.181 C 142.593 204.481 140.213 206.547 140.438 206.772 C 140.663 206.996 143.401 205.252 146.522 202.895 L 152.198 198.611 154.077 201.055 C 156.114 203.706 156.633 203.051 154.965 199.934 C 153.478 197.157 152.120 197.487 145.725 202.181 "/></g>
<g fill="#89A7FFFF" stroke="#89A7FFFF">
<path d="M 217.018 242.346 C 217.008 242.811 219.138 247.071 221.750 251.811 C 224.363 256.551 226.345 259.558 226.155 258.492 C 225.781 256.389 217.048 240.957 217.018 242.346 "/></g>
<g fill="#89A7FFFF" stroke="#89A7FFFF">
<path d="M 179.125 230.522 C 180.134 233.271 188.462 247.235 188.213 245.761 C 187.883 243.804 181.373 231.992 179.803 230.500 C 179.100 229.832 178.875 229.839 179.125 230.522 "/></g>
<g fill="#89A7FFFF" stroke="#89A7FFFF">
<path d="M 187.030 186.654 C 186.995 188.005 193.775 200.266 194.963 201.000 C 195.408 201.275 193.812 197.900 191.416 193.500 C 189.020 189.100 187.046 186.019 187.030 186.654 "/></g>
<g fill="#89A7FFFF" stroke="#89A7FFFF">
<path d="M 150.310 188.743 C 144.904 192.459 141.000 195.660 141.000 196.378 C 141.000 196.703 144.161 194.662 148.025 191.843 C 155.400 186.463 157.218 183.996 150.310 188.743 "/></g>
<g fill="#89A7FFFF" stroke="#89A7FFFF">
<path d="M 169.192 177.250 C 165.172 179.432 162.077 181.410 162.312 181.646 C 162.885 182.218 174.228 176.086 175.500 174.517 C 176.050 173.839 173.211 175.069 169.192 177.250 "/></g>
<g fill="#89A7FFFF" stroke="#89A7FFFF">
<path d="M 275.503 276.006 C 277.497 279.965 279.345 282.988 279.610 282.723 C 280.225 282.108 274.236 270.264 272.889 269.431 C 272.332 269.087 273.509 272.046 275.503 276.006 "/></g>
<g fill="#89A7FFFF" stroke="#89A7FFFF">
<path d="M 198.000 207.466 C 198.000 208.609 205.287 221.046 205.710 220.624 C 205.970 220.364 204.528 217.192 202.505 213.576 C 199.211 207.686 198.000 206.043 198.000 207.466 "/></g>
<g fill="#89A7FFFF" stroke="#89A7FFFF">
<path d="M 194.000 123.198 C 194.000 124.312 200.136 135.496 201.023 136.000 C 201.508 136.275 200.527 133.800 198.845 130.500 C 195.944 124.810 194.000 121.880 194.000 123.198 "/></g>
<g fill="#89A7FFFF" stroke="#89A7FFFF">
<path d="M 285.000 293.466 C 285.000 293.722 286.688 296.961 288.750 300.663 C 290.813 304.366 292.352 306.561 292.170 305.541 C 291.614 302.414 285.000 291.275 285.000 293.466 "/></g>
<g fill="#89A7FFFF" stroke="#89A7FFFF">
<path d="M 194.000 182.198 C 194.000 183.267 200.117 194.485 200.980 195.000 C 201.441 195.275 200.455 192.800 198.789 189.500 C 195.912 183.802 194.000 180.886 194.000 182.198 "/></g>
<g fill="#89A7FFFF" stroke="#89A7FFFF">
<path d="M 171.306 185.240 C 164.644 188.712 164.488 188.821 165.184 189.517 C 165.722 190.056 176.341 183.984 176.832 182.857 C 176.986 182.503 174.500 183.576 171.306 185.240 "/></g>
<g fill="#89A7FFFF" stroke="#89A7FFFF">
<path d="M 231.007 251.750 C 231.010 252.163 231.907 253.850 233.000 255.500 C 235.093 258.660 235.740 258.252 233.948 254.902 C 232.993 253.118 233.156 252.990 235.698 253.525 L 238.500 254.114 236.000 252.592 C 233.288 250.942 230.996 250.555 231.007 251.750 "/></g>
<g fill="#89A7FFFF" stroke="#89A7FFFF">
<path d="M 172.383 235.070 C 174.234 238.408 175.994 241.127 176.295 241.111 C 177.143 241.066 170.662 229.000 169.790 229.000 C 169.366 229.000 170.533 231.731 172.383 235.070 "/></g>
<g fill="#89A7FFFF" stroke="#89A7FFFF">
<path d="M 210.016 229.500 C 210.021 231.270 216.317 241.540 216.698 240.400 C 216.901 239.795 216.377 238.728 215.533 238.028 C 214.690 237.328 213.997 236.248 213.993 235.628 C 213.990 235.007 213.093 233.150 212.000 231.500 C 210.907 229.850 210.014 228.950 210.016 229.500 "/></g>
<g fill="#89A7FFFF" stroke="#89A7FFFF">
<path d="M 161.566 215.140 C 163.998 219.861 166.503 223.589 166.483 222.456 C 166.456 220.961 162.154 213.213 160.932 212.458 C 160.328 212.085 160.614 213.292 161.566 215.140 "/></g>
<g fill="#89A7FFFF" stroke="#89A7FFFF">
<path d="M 161.678 191.368 C 159.504 192.812 160.066 196.211 163.107 200.000 C 165.027 202.392 165.022 202.314 163.007 198.193 C 161.228 194.554 161.103 193.597 162.201 192.022 C 163.374 190.338 163.324 190.275 161.678 191.368 "/></g>
<g fill="#89A7FFFF" stroke="#89A7FFFF">
<path d="M 207.000 169.648 C 201.554 171.396 196.937 173.270 197.266 173.599 C 197.479 173.812 200.537 173.012 204.062 171.822 C 207.587 170.631 210.028 169.547 209.486 169.412 C 208.944 169.277 207.825 169.383 207.000 169.648 "/></g>
<g fill="#89A7FFFF" stroke="#89A7FFFF">
<path d="M 210.000 153.566 C 210.000 153.877 210.507 155.079 211.127 156.237 C 212.047 157.956 211.920 158.585 210.435 159.671 C 209.097 160.650 208.998 160.996 210.059 160.985 C 213.481 160.948 214.270 159.423 212.569 156.133 C 211.079 153.251 210.000 152.173 210.000 153.566 "/></g>
<g fill="#89A7FFFF" stroke="#89A7FFFF">
<path d="M 204.237 143.250 C 205.043 144.488 206.551 147.075 207.588 149.000 C 208.624 150.925 209.478 152.032 209.486 151.459 C 209.508 149.794 204.590 141.000 203.637 141.000 C 203.160 141.000 203.430 142.013 204.237 143.250 "/></g>
<g fill="#89A7FFFF" stroke="#89A7FFFF">
<path d="M 107.000 367.000 L 114.000 374.000 107.000 367.000 L 100.000 360.000 107.000 367.000 "/></g>
<g fill="#89A7FFFF" stroke="#89A7FFFF">
<path d="M 147.939 242.250 C 150.631 245.322 152.000 245.744 152.000 243.500 C 152.000 242.675 151.190 242.000 150.200 242.000 C 149.210 242.000 147.754 241.438 146.965 240.750 C 146.176 240.063 146.614 240.738 147.939 242.250 "/></g>
<g fill="#89A7FFFF" stroke="#89A7FFFF">
<path d="M 136.044 212.800 C 135.985 214.533 139.012 220.321 139.646 219.687 C 139.920 219.413 139.232 217.459 138.116 215.344 C 137.001 213.230 136.069 212.085 136.044 212.800 "/></g>
<g fill="#89A7FFFF" stroke="#89A7FFFF">
<path d="M 297.000 315.550 C 297.000 316.790 300.185 322.148 300.647 321.686 C 301.184 321.149 298.266 315.000 297.474 315.000 C 297.213 315.000 297.000 315.247 297.000 315.550 "/></g>
<g fill="#89A7FFFF" stroke="#89A7FFFF">
<path d="M 165.000 203.550 C 165.000 204.790 168.185 210.148 168.647 209.686 C 169.184 209.149 166.266 203.000 165.474 203.000 C 165.213 203.000 165.000 203.247 165.000 203.550 "/></g>
<g fill="#89A7FFFF" stroke="#89A7FFFF">
<path d="M 180.500 180.256 C 178.672 181.346 178.779 181.450 181.750 181.474 C 183.538 181.488 184.859 181.078 184.688 180.563 C 184.193 179.078 182.665 178.966 180.500 180.256 "/></g>
<g fill="#89A7FFFF" stroke="#89A7FFFF">
<path d="M 181.134 170.637 C 179.282 171.442 177.976 172.309 178.230 172.563 C 178.485 172.818 180.450 172.281 182.596 171.370 C 184.743 170.459 186.050 169.592 185.500 169.443 C 184.950 169.294 182.985 169.831 181.134 170.637 "/></g>
<g fill="#89A7FFFF" stroke="#89A7FFFF">
<path d="M 107.000 77.953 L 102.500 82.556 107.000 77.953 L 111.500 73.350 107.000 77.953 "/></g>
<g fill="#B5C8FFFF" stroke="#B5C8FFFF">
<path d="M 395.000 366.953 L 390.500 371.556 395.000 366.953 L 399.500 362.350 395.000 366.953 "/></g>
<g fill="#89A7FFFF" stroke="#89A7FFFF">
<path d="M 282.106 288.008 C 284.132 291.810 284.357 291.997 283.571 289.224 C 283.060 287.422 281.983 285.401 281.177 284.732 C 280.344 284.040 280.744 285.451 282.106 288.008 "/></g>
<g fill="#89A7FFFF" stroke="#89A7FFFF">
<path d="M 206.000 222.453 C 206.000 223.752 208.440 228.000 209.186 228.000 C 209.662 228.000 209.353 226.650 208.500 225.000 C 207.116 222.324 206.000 221.187 206.000 222.453 "/></g>
<g fill="#89A7FFFF" stroke="#89A7FFFF">
<path d="M 173.000 218.453 C 173.000 219.752 175.440 224.000 176.186 224.000 C 176.662 224.000 176.353 222.650 175.500 221.000 C 174.116 218.324 173.000 217.187 173.000 218.453 "/></g>
<g fill="#89A7FFFF" stroke="#89A7FFFF">
<path d="M 202.000 197.453 C 202.000 198.752 204.440 203.000 205.186 203.000 C 205.662 203.000 205.353 201.650 204.500 200.000 C 203.116 197.324 202.000 196.187 202.000 197.453 "/></g>
<g fill="#89A7FFFF" stroke="#89A7FFFF">
<path d="M 212.528 167.955 C 212.183 168.512 213.397 168.779 215.443 168.595 C 217.370 168.422 218.659 167.993 218.307 167.640 C 217.323 166.656 213.191 166.881 212.528 167.955 "/></g>
<g fill="#89A7FFFF" stroke="#89A7FFFF">
<path d="M 189.647 115.750 C 189.900 116.713 191.009 118.625 192.110 120.000 C 194.047 122.418 194.045 122.360 192.036 118.250 C 189.869 113.815 188.861 112.761 189.647 115.750 "/></g>
<g fill="#89A7FFFF" stroke="#89A7FFFF">
<path d="M 232.612 272.000 C 233.553 273.925 234.490 275.006 234.694 274.401 C 234.898 273.797 234.129 272.222 232.983 270.901 L 230.901 268.500 232.612 272.000 "/></g>
<g fill="#89A7FFFF" stroke="#89A7FFFF">
<path d="M 169.687 212.910 C 169.978 214.024 170.807 215.425 171.529 216.024 C 172.558 216.878 172.728 216.675 172.313 215.090 C 172.022 213.976 171.193 212.575 170.471 211.976 C 169.442 211.122 169.272 211.325 169.687 212.910 "/></g>
<g fill="#89A7FFFF" stroke="#89A7FFFF">
<path d="M 157.032 206.559 C 157.014 207.141 157.661 208.491 158.468 209.559 C 159.276 210.626 159.951 211.024 159.968 210.441 C 159.986 209.859 159.339 208.509 158.532 207.441 C 157.724 206.374 157.049 205.976 157.032 206.559 "/></g>
<g fill="#89A7FFFF" stroke="#89A7FFFF">
<path d="M 191.000 176.309 C 191.000 177.029 191.700 178.491 192.555 179.559 C 194.046 181.420 194.065 181.406 193.009 179.229 C 192.403 177.980 192.180 176.518 192.513 175.979 C 192.846 175.441 192.641 175.000 192.059 175.000 C 191.477 175.000 191.000 175.589 191.000 176.309 "/></g>
<g fill="#89A7FFFF" stroke="#89A7FFFF">
<path d="M 270.208 266.250 C 271.360 268.279 271.595 267.967 271.150 265.000 C 271.068 264.450 270.534 264.000 269.965 264.000 C 269.323 264.000 269.415 264.855 270.208 266.250 "/></g>
<g fill="#89A7FFFF" stroke="#89A7FFFF">
<path d="M 235.229 260.188 C 235.447 260.841 236.160 261.553 236.813 261.771 C 237.544 262.015 237.767 261.557 237.394 260.584 C 236.696 258.766 234.629 258.388 235.229 260.188 "/></g>
<g fill="#89A7FFFF" stroke="#89A7FFFF">
<path d="M 148.047 237.500 C 148.023 238.986 149.808 241.526 150.435 240.898 C 150.735 240.599 150.323 239.487 149.521 238.427 C 148.720 237.367 148.056 236.950 148.047 237.500 "/></g>
<g fill="#89A7FFFF" stroke="#89A7FFFF">
<path d="M 140.047 221.500 C 140.023 222.986 141.808 225.526 142.435 224.898 C 142.735 224.599 142.323 223.487 141.521 222.427 C 140.720 221.367 140.056 220.950 140.047 221.500 "/></g>
<g fill="#89A7FFFF" stroke="#89A7FFFF">
<path d="M 136.667 208.667 C 135.452 209.881 135.976 210.947 137.500 210.362 C 138.325 210.045 139.000 209.384 139.000 208.893 C 139.000 207.845 137.622 207.711 136.667 208.667 "/></g>
<g fill="#89A7FFFF" stroke="#89A7FFFF">
<path d="M 219.000 170.878 C 219.000 171.360 219.640 172.286 220.421 172.935 C 221.588 173.903 221.746 173.745 221.305 172.057 C 220.779 170.047 219.000 169.137 219.000 170.878 "/></g>
<g fill="#89A7FFFF" stroke="#89A7FFFF">
<path d="M 189.000 167.641 C 187.625 168.464 187.324 168.882 188.332 168.569 C 189.339 168.256 190.614 168.000 191.165 168.000 C 191.716 168.000 192.017 167.582 191.833 167.072 C 191.650 166.561 190.375 166.817 189.000 167.641 "/></g>
</svg>
